HIERARCHY
ROOT Hips
{
  OFFSET -333.365 93.14 611.219
  CHANNELS 6 Xposition Yposition Zposition Zrotation Xrotation Yrotation
  JOINT Spine
  {
    OFFSET 0 8 0
    CHANNELS 6 Xposition Yposition Zposition Zrotation Xrotation Yrotation
    JOINT Spine1
    {
      OFFSET 3.08527e-05 8 0
      CHANNELS 6 Xposition Yposition Zposition Zrotation Xrotation Yrotation
      JOINT Spine2
      {
        OFFSET -2.05552e-05 8 0
        CHANNELS 6 Xposition Yposition Zposition Zrotation Xrotation Yrotation
        JOINT Spine3
        {
          OFFSET 0 8 0
          CHANNELS 6 Xposition Yposition Zposition Zrotation Xrotation Yrotation
          JOINT Neck
          {
            OFFSET 0.000115622 17 9.06621e-05
            CHANNELS 6 Xposition Yposition Zposition Zrotation Xrotation Yrotation
            JOINT Head
            {
              OFFSET 1.57546e-05 10.8 -2.39568e-05
              CHANNELS 6 Xposition Yposition Zposition Zrotation Xrotation Yrotation
              End Site
              {
                OFFSET 0 20.25 0
              }
            }
          }
          JOINT LeftShoulder
          {
            OFFSET 5.00014 17 6.0447e-05
            CHANNELS 6 Xposition Yposition Zposition Zrotation Xrotation Yrotation
            JOINT LeftShoulder2
            {
              OFFSET 6.45 0 0
              CHANNELS 6 Xposition Yposition Zposition Zrotation Xrotation Yrotation
              JOINT LeftArm
              {
                OFFSET 6.44997 -0.000349295 0.000404518
                CHANNELS 6 Xposition Yposition Zposition Zrotation Xrotation Yrotation
                JOINT LeftForeArm
                {
                  OFFSET 1.05729e-05 -32.4 -2
                  CHANNELS 6 Xposition Yposition Zposition Zrotation Xrotation Yrotation
                  JOINT LeftHand
                  {
                    OFFSET -2.2471e-05 -25.65 2
                    CHANNELS 6 Xposition Yposition Zposition Zrotation Xrotation Yrotation
                    JOINT LeftHandThumb1
                    {
                      OFFSET -0.499954 -1.5 2.65003
                      CHANNELS 6 Xposition Yposition Zposition Zrotation Xrotation Yrotation
                      JOINT LeftHandThumb2
                      {
                        OFFSET -3.38909e-05 -3.80002 3.7
                        CHANNELS 6 Xposition Yposition Zposition Zrotation Xrotation Yrotation
                        JOINT LeftHandThumb3
                        {
                          OFFSET 1.97115e-05 -2.99999 2.7
                          CHANNELS 6 Xposition Yposition Zposition Zrotation Xrotation Yrotation
                          End Site
                          {
                            OFFSET -3.26162e-05 -2.30003 1.80002
                          }
                        }
                      }
                    }
                    JOINT LeftHandIndex
                    {
                      OFFSET 1.86204e-05 -1.89999 1.6
                      CHANNELS 6 Xposition Yposition Zposition Zrotation Xrotation Yrotation
                      JOINT LeftHandIndex1
                      {
                        OFFSET -1.65151e-05 -8.30003 1.90001
                        CHANNELS 6 Xposition Yposition Zposition Zrotation Xrotation Yrotation
                        JOINT LeftHandIndex2
                        {
                          OFFSET 5.20337e-05 -4.5 0
                          CHANNELS 6 Xposition Yposition Zposition Zrotation Xrotation Yrotation
                          JOINT LeftHandIndex3
                          {
                            OFFSET -1.4408e-05 -3.39999 -2.49491e-05
                            CHANNELS 6 Xposition Yposition Zposition Zrotation Xrotation Yrotation
                            End Site
                            {
                              OFFSET 0 -2.60002 0
                            }
                          }
                        }
                      }
                    }
                    JOINT LeftHandMiddle
                    {
                      OFFSET -0.249976 -2.19999 0.400011
                      CHANNELS 6 Xposition Yposition Zposition Zrotation Xrotation Yrotation
                      JOINT LeftHandMiddle1
                      {
                        OFFSET 0 -8.30002 0.999992
                        CHANNELS 6 Xposition Yposition Zposition Zrotation Xrotation Yrotation
                        JOINT LeftHandMiddle2
                        {
                          OFFSET 1.416e-05 -4.64999 2.01991e-05
                          CHANNELS 6 Xposition Yposition Zposition Zrotation Xrotation Yrotation
                          JOINT LeftHandMiddle3
                          {
                            OFFSET -1.33569e-05 -3.30001 0
                            CHANNELS 6 Xposition Yposition Zposition Zrotation Xrotation Yrotation
                            End Site
                            {
                              OFFSET -5.67115e-05 -2.69998 -1.67858e-05
                            }
                          }
                        }
                      }
                    }
                    JOINT LeftHandRing
                    {
                      OFFSET -0.499965 -2.15 -0.799972
                      CHANNELS 6 Xposition Yposition Zposition Zrotation Xrotation Yrotation
                      JOINT LeftHandRing1
                      {
                        OFFSET 0 -7.75 -0.2
                        CHANNELS 6 Xposition Yposition Zposition Zrotation Xrotation Yrotation
                        JOINT LeftHandRing2
                        {
                          OFFSET 0 -3.8 -1.13399e-05
                          CHANNELS 6 Xposition Yposition Zposition Zrotation Xrotation Yrotation
                          JOINT LeftHandRing3
                          {
                            OFFSET 0 -3.40002 0
                            CHANNELS 6 Xposition Yposition Zposition Zrotation Xrotation Yrotation
                            End Site
                            {
                              OFFSET 2.16518e-05 -2.59997 0
                            }
                          }
                        }
                      }
                    }
                    JOINT LeftHandPinky
                    {
                      OFFSET -0.749978 -1.75001 -1.84998
                      CHANNELS 6 Xposition Yposition Zposition Zrotation Xrotation Yrotation
                      JOINT LeftHandPinky1
                      {
                        OFFSET 0 -7.15 -0.999994
                        CHANNELS 6 Xposition Yposition Zposition Zrotation Xrotation Yrotation
                        JOINT LeftHandPinky2
                        {
                          OFFSET 0 -3.00001 -1.66437e-05
                          CHANNELS 6 Xposition Yposition Zposition Zrotation Xrotation Yrotation
                          JOINT LeftHandPinky3
                          {
                            OFFSET 2.91489e-05 -2.34999 2.54969e-05
                            CHANNELS 6 Xposition Yposition Zposition Zrotation Xrotation Yrotation
                            End Site
                            {
                              OFFSET 1.51675e-05 -2.10001 0
                            }
                          }
                        }
                      }
                    }
                  }
                }
              }
            }
          }
          JOINT RightShoulder
          {
            OFFSET -4.99991 17 0.000120877
            CHANNELS 6 Xposition Yposition Zposition Zrotation Xrotation Yrotation
            JOINT RightShoulder2
            {
              OFFSET -6.45 0 0
              CHANNELS 6 Xposition Yposition Zposition Zrotation Xrotation Yrotation
              JOINT RightArm
              {
                OFFSET -6.44995 -8.04861e-05 0.000257065
                CHANNELS 6 Xposition Yposition Zposition Zrotation Xrotation Yrotation
                JOINT RightForeArm
                {
                  OFFSET 0 -32.4 -1.99998
                  CHANNELS 6 Xposition Yposition Zposition Zrotation Xrotation Yrotation
                  JOINT RightHand
                  {
                    OFFSET 2.31307e-05 -25.65 2.00002
                    CHANNELS 6 Xposition Yposition Zposition Zrotation Xrotation Yrotation
                    JOINT RightHandThumb1
                    {
                      OFFSET 0.499992 -1.49999 2.65001
                      CHANNELS 6 Xposition Yposition Zposition Zrotation Xrotation Yrotation
                      JOINT RightHandThumb2
                      {
                        OFFSET 0 -3.8 3.69997
                        CHANNELS 6 Xposition Yposition Zposition Zrotation Xrotation Yrotation
                        JOINT RightHandThumb3
                        {
                          OFFSET 0 -3 2.70001
                          CHANNELS 6 Xposition Yposition Zposition Zrotation Xrotation Yrotation
                          End Site
                          {
                            OFFSET 0 -2.30002 1.8
                          }
                        }
                      }
                    }
                    JOINT RightHandIndex
                    {
                      OFFSET -2.27376e-05 -1.89999 1.59997
                      CHANNELS 6 Xposition Yposition Zposition Zrotation Xrotation Yrotation
                      JOINT RightHandIndex1
                      {
                        OFFSET 2.03722e-05 -8.30002 1.89996
                        CHANNELS 6 Xposition Yposition Zposition Zrotation Xrotation Yrotation
                        JOINT RightHandIndex2
                        {
                          OFFSET -1.90643e-05 -4.49999 1.04263e-05
                          CHANNELS 6 Xposition Yposition Zposition Zrotation Xrotation Yrotation
                          JOINT RightHandIndex3
                          {
                            OFFSET 5.93498e-05 -3.40001 0
                            CHANNELS 6 Xposition Yposition Zposition Zrotation Xrotation Yrotation
                            End Site
                            {
                              OFFSET 0 -2.59999 -1.24202e-05
                            }
                          }
                        }
                      }
                    }
                    JOINT RightHandMiddle
                    {
                      OFFSET 0.249995 -2.2 0.399993
                      CHANNELS 6 Xposition Yposition Zposition Zrotation Xrotation Yrotation
                      JOINT RightHandMiddle1
                      {
                        OFFSET -2.21304e-05 -8.3 0.999972
                        CHANNELS 6 Xposition Yposition Zposition Zrotation Xrotation Yrotation
                        JOINT RightHandMiddle2
                        {
                          OFFSET -6.2525e-05 -4.65 -1.464e-05
                          CHANNELS 6 Xposition Yposition Zposition Zrotation Xrotation Yrotation
                          JOINT RightHandMiddle3
                          {
                            OFFSET 3.19942e-05 -3.30001 2.49922e-05
                            CHANNELS 6 Xposition Yposition Zposition Zrotation Xrotation Yrotation
                            End Site
                            {
                              OFFSET 0 -2.7 2.86381e-05
                            }
                          }
                        }
                      }
                    }
                    JOINT RightHandRing
                    {
                      OFFSET 0.499981 -2.15001 -0.800036
                      CHANNELS 6 Xposition Yposition Zposition Zrotation Xrotation Yrotation
                      JOINT RightHandRing1
                      {
                        OFFSET 0 -7.75 -0.199992
                        CHANNELS 6 Xposition Yposition Zposition Zrotation Xrotation Yrotation
                        JOINT RightHandRing2
                        {
                          OFFSET 0 -3.8 1.20045e-05
                          CHANNELS 6 Xposition Yposition Zposition Zrotation Xrotation Yrotation
                          JOINT RightHandRing3
                          {
                            OFFSET -2.33214e-05 -3.40001 1.42077e-05
                            CHANNELS 6 Xposition Yposition Zposition Zrotation Xrotation Yrotation
                            End Site
                            {
                              OFFSET 0 -2.59997 -2.09274e-05
                            }
                          }
                        }
                      }
                    }
                    JOINT RightHandPinky
                    {
                      OFFSET 0.749986 -1.74999 -1.85001
                      CHANNELS 6 Xposition Yposition Zposition Zrotation Xrotation Yrotation
                      JOINT RightHandPinky1
                      {
                        OFFSET 0 -7.15 -1
                        CHANNELS 6 Xposition Yposition Zposition Zrotation Xrotation Yrotation
                        JOINT RightHandPinky2
                        {
                          OFFSET 0 -3.00001 0
                          CHANNELS 6 Xposition Yposition Zposition Zrotation Xrotation Yrotation
                          JOINT RightHandPinky3
                          {
                            OFFSET 0 -2.34998 -1.77743e-05
                            CHANNELS 6 Xposition Yposition Zposition Zrotation Xrotation Yrotation
                            End Site
                            {
                              OFFSET 3.15903e-05 -2.09997 -2.99554e-05
                            }
                          }
                        }
                      }
                    }
                  }
                }
              }
            }
          }
        }
      }
    }
  }
  JOINT LeftUpLeg
  {
    OFFSET 7.99997 0 -1.14586e-05
    CHANNELS 6 Xposition Yposition Zposition Zrotation Xrotation Yrotation
    JOINT LeftLeg
    {
      OFFSET -1.04886e-05 -45 -0.999995
      CHANNELS 6 Xposition Yposition Zposition Zrotation Xrotation Yrotation
      JOINT LeftFoot
      {
        OFFSET 4.50377e-05 -41 -2
        CHANNELS 6 Xposition Yposition Zposition Zrotation Xrotation Yrotation
        JOINT LeftToeBase
        {
          OFFSET 0 -7.5 12.5
          CHANNELS 6 Xposition Yposition Zposition Zrotation Xrotation Yrotation
          JOINT LeftFootToe
          {
            OFFSET 0 0 4
            CHANNELS 6 Xposition Yposition Zposition Zrotation Xrotation Yrotation
            End Site
            {
              OFFSET 0 0 0
            }
          }
        }
      }
    }
  }
  JOINT RightUpLeg
  {
    OFFSET -7.99997 0 1.14586e-05
    CHANNELS 6 Xposition Yposition Zposition Zrotation Xrotation Yrotation
    JOINT RightLeg
    {
      OFFSET -2.86613e-05 -45 -1.00002
      CHANNELS 6 Xposition Yposition Zposition Zrotation Xrotation Yrotation
      JOINT RightFoot
      {
        OFFSET 1.92971e-05 -41 -1.99999
        CHANNELS 6 Xposition Yposition Zposition Zrotation Xrotation Yrotation
        JOINT RightToeBase
        {
          OFFSET -1.18849e-05 -7.5 12.5
          CHANNELS 6 Xposition Yposition Zposition Zrotation Xrotation Yrotation
          JOINT RightFootToe
          {
            OFFSET 0 0 4
            CHANNELS 6 Xposition Yposition Zposition Zrotation Xrotation Yrotation
            End Site
            {
              OFFSET 0 0 0
            }
          }
        }
      }
    }
  }
}
MOTION
Frames:	3
Frame Time:	0.0111111
-333.583 93.1721 611.662 0.066999 -1.32422 81.5645 1.13687e-13 8 0 2.088 -1.68393 -3.74536 0 8 0 -0.469459 0.939787 -1.42611 0 8 5.68434e-14 -0.237571 0.468459 -0.722907 0 8 0 -0.237458 0.468442 -0.716141 0 17 2.84217e-14 -3.96429 7.0373 6.77566 -1.13687e-13 10.8 -2.84217e-14 -8.98211 14.2255 16.5802 5 17 2.84217e-14 -3.10553 -4.86666 -0.503844 6.45 0 -8.52651e-14 1.23143 -0.0417824 2.07728 6.45 0 2.84217e-14 12.6385 -5.38444 37.1453 1.13687e-13 -32.4 -2 -71.443 -59.6592 -20.105 0 -25.65 2 5.34053 -3.77689 16.6088 -0.5 -1.5 2.65 -13.519 20.7715 -11.7562 0 -3.8 3.7 -1.32867 7.90638 -0.105697 0 -3 2.7 -0.166238 8.53921 0.147133 0 -1.9 1.6 -1.09332e-15 1.78906e-15 -0 0 -8.3 1.9 -4.83425 15.6994 1.0605 -5.68434e-14 -4.5 0 -34.4121 0.0190453 -0.00889962 0 -3.4 0 -24.7288 0.0124809 0.0024145 -0.25 -2.2 0.4 -1.09332e-15 1.78906e-15 -0 -5.68434e-14 -8.3 1 -18.7602 10.8338 2.30969 5.68434e-14 -4.65 0 -8.43705 -0.00672432 0.0124546 0 -3.3 -5.68434e-14 -7.54446 -0.0143687 0.00968093 -0.5 -2.15 -0.8 -1.09332e-15 1.78906e-15 -0 0 -7.75 -0.2 -56.8112 11.6394 9.66754 5.68434e-14 -3.8 0 -0.000104696 -0.00909758 -0.0417914 0 -3.4 0 -7.20619e-06 -0.00956881 -0.0415039 -0.75 -1.75 -1.85 -1.09332e-15 1.78906e-15 -0 0 -7.15 -1 -59.288 16.3197 14.0623 5.68434e-14 -3 5.68434e-14 -0.0297936 0.0445273 -0.0393575 -5.68434e-14 -2.35 0 -6.07469e-06 0.040871 -0.0385454 -5 17 5.68434e-14 -3.36581 -0.875642 0.232563 -6.45 4.26326e-14 -2.84217e-14 -1.67199 0.0321538 -0.860888 -6.45 1.42109e-14 5.68434e-14 -28.409 -27.467 -7.90641 0 -32.4 -2 151.853 -57.3612 154.444 0 -25.65 2 -1.3669 -19.968 4.15289 0.5 -1.5 2.65 5.8347 23.0195 13.3689 0 -3.8 3.7 2.3631 -0.784484 -0.670229 0 -3 2.7 0.365721 27.304 -0.274079 0 -1.9 1.6 9.54166e-15 0 -3.18055e-15 0 -8.3 1.9 2.12397 -8.90517 0.106154 0 -4.5 0 11.1479 0.104725 -0.0554026 0 -3.4 -8.52651e-14 8.19344 0.0793515 -0.053683 0.25 -2.2 0.4 9.54166e-15 0 -3.18055e-15 0 -8.3 1 11.0244 -8.14515 0.371502 -1.13687e-13 -4.65 -2.84217e-14 4.52438 -0.0319608 0.0307662 5.68434e-14 -3.3 0 3.84059 -0.0273238 0.029504 0.5 -2.15 -0.8 9.54166e-15 0 -3.18055e-15 -1.13687e-13 -7.75 -0.2 23.4705 -8.90913 0.768636 -5.68434e-14 -3.8 2.84217e-14 1.025 -0.0219008 0.0207857 -5.68434e-14 -3.4 -2.84217e-14 0.965608 -0.0205093 0.0203438 0.75 -1.75 -1.85 9.54166e-15 0 -3.18055e-15 0 -7.15 -1 30.022 -11.2988 1.4511 0 -3 0 0.00307756 0.00744439 0.00275558 0 -2.35 -2.84217e-14 3.90673e-05 0.0229782 0.00229352 8 0 0 1.76366 0.577165 11.2178 0 -45 -1 -1.26195 6.75512 -6.38384 -1.13687e-13 -41 -2 1.58459 -7.38871 1.51688 -1.13687e-13 -7.5 12.5 -4.19764e-08 0.120525 -2.72475e-06 0 0 4 3.00371 -4.81631 31.1048 -8 0 0 2.7772 -5.06728 -11.6474 1.13687e-13 -45 -1 -0.0113482 4.09416 -0.35097 -1.13687e-13 -41 -2 -2.52199 0.800393 0.681505 0 -7.5 12.5 5.79121e-09 0.096227 -4.1787e-06 0 0 4 5.32646 -2.10305 23.9361 
-333.581 93.1722 611.654 0.0625934 -1.32169 81.5216 -1.13687e-13 8 5.68434e-14 2.078 -1.66338 -3.74413 0 8 0 -0.464758 0.928197 -1.41975 0 8 2.84217e-14 -0.235204 0.462684 -0.72321 0 8 -5.68434e-14 -0.235065 0.46248 -0.716257 0 17 -5.68434e-14 -3.99618 7.07467 6.7391 -1.13687e-13 10.8 0 -8.99729 14.2245 16.4878 5 17 0 -3.14292 -4.8067 -0.512055 6.45 1.42109e-14 2.84217e-14 1.22734 -0.0409865 2.07247 6.45 0 -2.84217e-14 12.7068 -5.43387 37.1828 -1.13687e-13 -32.4 -2 -71.363 -59.577 -20.2104 -1.13687e-13 -25.65 2 5.54797 -3.98181 16.4746 -0.5 -1.5 2.65 -13.0475 19.5833 -11.7723 0 -3.8 3.7 -1.29325 7.85679 -0.0929568 1.13687e-13 -3 2.7 -0.142409 7.07575 0.121233 0 -1.9 1.6 -9.93923e-16 2.38542e-15 6.36111e-15 -5.68434e-14 -8.3 1.9 -4.66909 15.3397 1.01484 1.13687e-13 -4.5 5.68434e-14 -35.5525 0.0292319 -0.014966 0 -3.4 0 -25.4166 0.0199108 0.00233328 -0.25 -2.2 0.4 -9.93923e-16 2.38542e-15 6.36111e-15 -5.68434e-14 -8.3 1 -18.6659 10.641 2.27752 5.68434e-14 -4.65 0 -9.20037 -0.00611315 0.0101528 0 -3.3 5.68434e-14 -8.14467 -0.0115609 0.0081814 -0.5 -2.15 -0.8 -9.93923e-16 2.38542e-15 6.36111e-15 0 -7.75 -0.2 -56.4016 11.7632 9.6558 5.68434e-14 -3.8 0 -0.000104903 -0.00938486 -0.0417763 0 -3.4 -5.68434e-14 -7.43752e-06 -0.00986785 -0.0415894 -0.75 -1.75 -1.85 -9.93923e-16 2.38542e-15 6.36111e-15 5.68434e-14 -7.15 -1 -59.0231 16.4679 14.0636 0 -3 -5.68434e-14 -0.0297943 0.0440391 -0.038954 0 -2.35 5.68434e-14 -6.53424e-06 0.0406035 -0.0381509 -5 17 0 -3.36919 -0.818445 0.291256 -6.45 -1.42109e-14 2.84217e-14 -1.67221 0.0327467 -0.867346 -6.45 1.42109e-14 -5.68434e-14 -28.4677 -27.4761 -7.81204 0 -32.4 -2 152.415 -57.5817 155.214 0 -25.65 2 -2.25047 -20.2089 4.78761 0.5 -1.5 2.65 6.97485 25.3762 13.6793 0 -3.8 3.7 2.48932 -1.74927 -0.663198 5.68434e-14 -3 2.7 0.329858 26.151 -0.267912 0 -1.9 1.6 -3.18055e-15 -3.18055e-15 -3.18055e-15 0 -8.3 1.9 2.61954 -8.3873 0.131964 0 -4.5 0 12.6595 0.09332 -0.0518834 0 -3.4 2.84217e-14 9.41343 0.0679315 -0.0503314 0.25 -2.2 0.4 -3.18055e-15 -3.18055e-15 -3.18055e-15 0 -8.3 1 12.8813 -7.29033 0.339229 0 -4.65 -8.52651e-14 3.9193 -0.033482 0.0389948 5.68434e-14 -3.3 5.68434e-14 3.28516 -0.0288945 0.0373902 0.5 -2.15 -0.8 -3.18055e-15 -3.18055e-15 -3.18055e-15 0 -7.75 -0.2 25.6655 -8.22403 0.628023 -5.68434e-14 -3.8 2.84217e-14 0.491816 -0.0142522 0.0162724 0 -3.4 5.68434e-14 0.470655 -0.0136057 0.015823 0.75 -1.75 -1.85 -3.18055e-15 -3.18055e-15 -3.18055e-15 -1.13687e-13 -7.15 -1 32.4623 -11.7863 1.38108 0 -3 -5.68434e-14 0.00307365 0.00918068 0.00395399 0 -2.35 -5.68434e-14 3.85276e-05 0.0234958 0.00348058 8 0 2.84217e-14 1.74735 0.592945 11.1928 0 -45 -1 -1.26115 6.71993 -6.3824 0 -41 -2 1.59349 -7.37112 1.56745 1.13687e-13 -7.5 12.5 -4.19778e-08 0.120495 -2.72475e-06 -1.13687e-13 -4.44089e-16 4 3.00311 -4.80971 31.1044 -8 0 0 2.77045 -5.07288 -11.637 1.13687e-13 -45 -1 -0.0113093 4.09367 -0.351556 0 -41 -2 -2.51756 0.801549 0.703438 1.13687e-13 -7.5 12.5 5.79864e-09 0.0963288 -4.1787e-06 0 -2.77556e-17 4 5.32334 -2.11329 23.9364 
-333.577 93.1724 611.646 0.0583292 -1.31896 81.4846 0 8 -8.52651e-14 2.06641 -1.64327 -3.7432 -1.13687e-13 8 -1.13687e-13 -0.459215 0.916872 -1.41276 -1.13687e-13 8 2.84217e-14 -0.232265 0.457044 -0.72349 0 8 0 -0.232079 0.456701 -0.716377 0 17 0 -4.02956 7.11433 6.70207 0 10.8 0 -9.01282 14.2316 16.3949 5 17 2.84217e-14 -3.18591 -4.74681 -0.52603 6.45 2.84217e-14 -2.84217e-14 1.22476 -0.0395622 2.07496 6.45 -2.84217e-14 -8.52651e-14 12.791 -5.4863 37.2489 -1.13687e-13 -32.4 -2 -71.2578 -59.4632 -20.2884 -1.13687e-13 -25.65 2 5.65747 -4.20986 16.3625 -0.5 -1.5 2.65 -12.3844 18.086 -11.7075 0 -3.8 3.7 -1.23803 7.98564 -0.0745871 0 -3 2.7 -0.112586 5.46977 0.0881792 -5.68434e-14 -1.9 1.6 -7.95139e-16 1.59028e-15 6.36111e-15 -5.68434e-14 -8.3 1.9 -4.45423 14.8627 0.955777 5.68434e-14 -4.5 5.68434e-14 -36.8975 0.0441594 -0.02284 0 -3.4 0 -26.2305 0.0302258 0.00219758 -0.25 -2.2 0.4 -7.95139e-16 1.59028e-15 6.36111e-15 0 -8.3 1 -18.4982 10.4247 2.24097 5.68434e-14 -4.65 0 -10.0741 -0.00508281 0.00770947 0 -3.3 -5.68434e-14 -8.82044 -0.00875778 0.00682557 -0.5 -2.15 -0.8 -7.95139e-16 1.59028e-15 6.36111e-15 0 -7.75 -0.2 -55.7437 11.9808 9.64853 5.68434e-14 -3.8 0 -0.000105106 -0.00967035 -0.0417414 5.68434e-14 -3.4 0 -7.66326e-06 -0.0101628 -0.041655 -0.75 -1.75 -1.85 -7.95139e-16 1.59028e-15 6.36111e-15 0 -7.15 -1 -58.6341 16.6891 14.068 -5.68434e-14 -3 -5.68434e-14 -0.0297949 0.0435435 -0.0385421 0 -2.35 0 -6.99647e-06 0.0403353 -0.037748 -5 17 2.84217e-14 -3.37776 -0.760304 0.344305 -6.45 -1.42109e-14 2.84217e-14 -1.67241 0.0333979 -0.873505 -6.45 0 -5.68434e-14 -28.5213 -27.481 -7.70841 1.13687e-13 -32.4 -2 152.927 -57.7885 155.916 -1.13687e-13 -25.65 2 -3.12454 -20.4974 5.47051 0.5 -1.5 2.65 8.07763 27.7018 13.904 0 -3.8 3.7 2.58472 -2.11152 -0.634269 5.68434e-14 -3 2.7 0.294694 25.481 -0.257038 0 -1.9 1.6 3.18055e-15 -3.18055e-15 -6.36111e-15 0 -8.3 1.9 3.25339 -7.84083 0.161881 0 -4.5 0 14.0408 0.0717989 -0.0450317 -5.68434e-14 -3.4 2.84217e-14 10.4889 0.0491342 -0.0437223 0.25 -2.2 0.4 3.18055e-15 -3.18055e-15 -6.36111e-15 0 -8.3 1 14.9983 -6.28903 0.28087 0 -4.65 2.84217e-14 3.22689 -0.0315438 0.0474933 5.68434e-14 -3.3 0 2.64397 -0.027622 0.0455371 0.5 -2.15 -0.8 3.18055e-15 -3.18055e-15 -6.36111e-15 0 -7.75 -0.2 27.7773 -7.34524 0.409064 0 -3.8 2.84217e-14 0.208589 -0.00676735 0.0081685 0 -3.4 2.84217e-14 0.194942 -0.00649641 0.00799759 0.75 -1.75 -1.85 3.18055e-15 -3.18055e-15 -6.36111e-15 0 -7.15 -1 34.6453 -12.4584 1.20416 0 -3 -5.68434e-14 0.00306972 0.0110114 0.00491792 -5.68434e-14 -2.35 -2.84217e-14 3.80121e-05 0.0239797 0.00443456 8 -1.42109e-14 -8.52651e-14 1.73071 0.617063 11.1727 0 -45 -1 -1.26037 6.66821 -6.38094 1.13687e-13 -41 -2 1.60108 -7.34563 1.60987 -1.13687e-13 -7.5 12.5 -4.19797e-08 0.120456 -2.72475e-06 0 0 4 3.00376 -4.80304 31.104 -8 -1.42109e-14 -2.84217e-14 2.76238 -5.07684 -11.6249 0 -45 -1 -0.0112704 4.09322 -0.35214 0 -41 -2 -2.51171 0.802338 0.724556 0 -7.5 12.5 5.80545e-09 0.0964222 -4.1787e-06 0 0 4 5.32042 -2.11831 23.9366 
